<svg xmlns="http://www.w3.org/2000/svg" xmlns:xlink="http://www.w3.org/1999/xlink" fill-opacity="1" color-rendering="auto" color-interpolation="auto" stroke="black" text-rendering="auto" stroke-linecap="square" stroke-miterlimit="10" stroke-opacity="1" shape-rendering="auto" fill="black" stroke-dasharray="none" font-weight="normal" stroke-width="1" font-family="'Dialog'" font-style="normal" stroke-linejoin="miter" font-size="12" stroke-dashoffset="0" image-rendering="auto"><!--Generated by an eXist-db application with Batik SVG Generator-->
    <defs id="genericDefs"/>
    <g>
        <defs id="defs1">
            <clipPath clipPathUnits="userSpaceOnUse" id="clipPath1">
                <path d="M0 0 L960 0 L960 600 L0 600 L0 0 Z"/>
            </clipPath>
            <clipPath clipPathUnits="userSpaceOnUse" id="clipPath2">
                <path d="M-485 -455 L475 -455 L475 145 L-485 145 L-485 -455 Z"/>
            </clipPath>
            <clipPath clipPathUnits="userSpaceOnUse" id="clipPath3">
                <path d="M0 0 L0 15 L118 15 L118 0 Z"/>
            </clipPath>
            <clipPath clipPathUnits="userSpaceOnUse" id="clipPath4">
                <path d="M-148 -560 L812 -560 L812 40 L-148 40 L-148 -560 Z"/>
            </clipPath>
            <clipPath clipPathUnits="userSpaceOnUse" id="clipPath5">
                <path d="M0 0 L0 15 L54 15 L54 0 Z"/>
            </clipPath>
            <clipPath clipPathUnits="userSpaceOnUse" id="clipPath6">
                <path d="M-810 -386 L150 -386 L150 214 L-810 214 L-810 -386 Z"/>
            </clipPath>
            <clipPath clipPathUnits="userSpaceOnUse" id="clipPath7">
                <path d="M0 0 L0 15 L102 15 L102 0 Z"/>
            </clipPath>
            <clipPath clipPathUnits="userSpaceOnUse" id="clipPath8">
                <path d="M-433 -208 L527 -208 L527 392 L-433 392 L-433 -208 Z"/>
            </clipPath>
            <clipPath clipPathUnits="userSpaceOnUse" id="clipPath9">
                <path d="M0 0 L0 15 L58 15 L58 0 Z"/>
            </clipPath>
            <clipPath clipPathUnits="userSpaceOnUse" id="clipPath10">
                <path d="M-644 -321 L316 -321 L316 279 L-644 279 L-644 -321 Z"/>
            </clipPath>
            <clipPath clipPathUnits="userSpaceOnUse" id="clipPath11">
                <path d="M0 0 L0 15 L60 15 L60 0 Z"/>
            </clipPath>
            <clipPath clipPathUnits="userSpaceOnUse" id="clipPath12">
                <path d="M-507 -328 L453 -328 L453 272 L-507 272 L-507 -328 Z"/>
            </clipPath>
            <clipPath clipPathUnits="userSpaceOnUse" id="clipPath13">
                <path d="M0 0 L0 15 L57 15 L57 0 Z"/>
            </clipPath>
            <clipPath clipPathUnits="userSpaceOnUse" id="clipPath14">
                <path d="M-344 -496 L616 -496 L616 104 L-344 104 L-344 -496 Z"/>
            </clipPath>
            <clipPath clipPathUnits="userSpaceOnUse" id="clipPath15">
                <path d="M0 0 L0 15 L108 15 L108 0 Z"/>
            </clipPath>
            <clipPath clipPathUnits="userSpaceOnUse" id="clipPath16">
                <path d="M-31 -532 L929 -532 L929 68 L-31 68 L-31 -532 Z"/>
            </clipPath>
            <clipPath clipPathUnits="userSpaceOnUse" id="clipPath17">
                <path d="M0 0 L0 15 L24 15 L24 0 Z"/>
            </clipPath>
            <clipPath clipPathUnits="userSpaceOnUse" id="clipPath18">
                <path d="M-188 -101 L772 -101 L772 499 L-188 499 L-188 -101 Z"/>
            </clipPath>
            <clipPath clipPathUnits="userSpaceOnUse" id="clipPath19">
                <path d="M0 0 L0 15 L43 15 L43 0 Z"/>
            </clipPath>
            <clipPath clipPathUnits="userSpaceOnUse" id="clipPath20">
                <path d="M-640 -165 L320 -165 L320 435 L-640 435 L-640 -165 Z"/>
            </clipPath>
            <clipPath clipPathUnits="userSpaceOnUse" id="clipPath21">
                <path d="M-563 -273 L397 -273 L397 327 L-563 327 L-563 -273 Z"/>
            </clipPath>
            <clipPath clipPathUnits="userSpaceOnUse" id="clipPath22">
                <path d="M0 0 L0 15 L53 15 L53 0 Z"/>
            </clipPath>
            <clipPath clipPathUnits="userSpaceOnUse" id="clipPath23">
                <path d="M-515 -419 L445 -419 L445 181 L-515 181 L-515 -419 Z"/>
            </clipPath>
            <clipPath clipPathUnits="userSpaceOnUse" id="clipPath24">
                <path d="M-770 -490 L190 -490 L190 110 L-770 110 L-770 -490 Z"/>
            </clipPath>
            <clipPath clipPathUnits="userSpaceOnUse" id="clipPath25">
                <path d="M0 0 L0 15 L190 15 L190 0 Z"/>
            </clipPath>
            <clipPath clipPathUnits="userSpaceOnUse" id="clipPath26">
                <path d="M-709 -405 L251 -405 L251 195 L-709 195 L-709 -405 Z"/>
            </clipPath>
            <clipPath clipPathUnits="userSpaceOnUse" id="clipPath27">
                <path d="M-12 -325 L948 -325 L948 275 L-12 275 L-12 -325 Z"/>
            </clipPath>
            <clipPath clipPathUnits="userSpaceOnUse" id="clipPath28">
                <path d="M0 0 L0 15 L20 15 L20 0 Z"/>
            </clipPath>
            <clipPath clipPathUnits="userSpaceOnUse" id="clipPath29">
                <path d="M-689 -463 L271 -463 L271 137 L-689 137 L-689 -463 Z"/>
            </clipPath>
            <clipPath clipPathUnits="userSpaceOnUse" id="clipPath30">
                <path d="M0 0 L0 15 L61 15 L61 0 Z"/>
            </clipPath>
            <clipPath clipPathUnits="userSpaceOnUse" id="clipPath31">
                <path d="M-582 -150 L378 -150 L378 450 L-582 450 L-582 -150 Z"/>
            </clipPath>
            <clipPath clipPathUnits="userSpaceOnUse" id="clipPath32">
                <path d="M-678 -440 L282 -440 L282 160 L-678 160 L-678 -440 Z"/>
            </clipPath>
            <clipPath clipPathUnits="userSpaceOnUse" id="clipPath33">
                <path d="M-143 -179 L817 -179 L817 421 L-143 421 L-143 -179 Z"/>
            </clipPath>
            <clipPath clipPathUnits="userSpaceOnUse" id="clipPath34">
                <path d="M-152 -101 L808 -101 L808 499 L-152 499 L-152 -101 Z"/>
            </clipPath>
            <clipPath clipPathUnits="userSpaceOnUse" id="clipPath35">
                <path d="M-538 -307 L422 -307 L422 293 L-538 293 L-538 -307 Z"/>
            </clipPath>
            <clipPath clipPathUnits="userSpaceOnUse" id="clipPath36">
                <path d="M0 0 L0 15 L34 15 L34 0 Z"/>
            </clipPath>
            <clipPath clipPathUnits="userSpaceOnUse" id="clipPath37">
                <path d="M0 0 L0 15 L36 15 L36 0 Z"/>
            </clipPath>
            <clipPath clipPathUnits="userSpaceOnUse" id="clipPath38">
                <path d="M0 0 L0 15 L73 15 L73 0 Z"/>
            </clipPath>
            <clipPath clipPathUnits="userSpaceOnUse" id="clipPath39">
                <path d="M0 0 L0 15 L23 15 L23 0 Z"/>
            </clipPath>
            <clipPath clipPathUnits="userSpaceOnUse" id="clipPath40">
                <path d="M0 0 L0 15 L50 15 L50 0 Z"/>
            </clipPath>
            <clipPath clipPathUnits="userSpaceOnUse" id="clipPath41">
                <path d="M0 0 L0 15 L30 15 L30 0 Z"/>
            </clipPath>
            <clipPath clipPathUnits="userSpaceOnUse" id="clipPath42">
                <path d="M0 0 L0 15 L46 15 L46 0 Z"/>
            </clipPath>
            <clipPath clipPathUnits="userSpaceOnUse" id="clipPath43">
                <path d="M0 0 L0 15 L62 15 L62 0 Z"/>
            </clipPath>
            <clipPath clipPathUnits="userSpaceOnUse" id="clipPath44">
                <path d="M0 0 L0 15 L28 15 L28 0 Z"/>
            </clipPath>
        </defs>
        <g font-family="sans-serif" fill="rgb(238,238,238)" stroke="rgb(238,238,238)">
            <rect x="0" width="960" height="600" y="0" clip-path="url(#clipPath1)" stroke="none"/>
        </g>
        <g fill="rgb(238,238,238)" text-rendering="optimizeLegibility" font-family="sans-serif" stroke="rgb(238,238,238)">
            <rect x="0" width="960" height="600" y="0" clip-path="url(#clipPath1)" stroke="none"/>
        </g>
        <g text-rendering="optimizeLegibility" stroke-dasharray="1,3" stroke-miterlimit="1" font-family="sans-serif" stroke-linejoin="round" stroke-linecap="round">
            <path fill="none" d="M659.594 473.1819 L483.2713 465.3304" clip-path="url(#clipPath1)"/>
        </g>
        <g font-family="sans-serif" text-rendering="optimizeLegibility">
            <path d="M537.1668 467.7303 L547.3348 464.1791 L543.1609 467.9972 L546.9789 472.1712 L537.1668 467.7303" clip-path="url(#clipPath1)" stroke="none"/>
            <path fill="none" d="M537.1668 467.7303 L547.3348 464.1791 L543.1609 467.9972 L546.9789 472.1712 L537.1668 467.7303" clip-path="url(#clipPath1)"/>
        </g>
        <g fill="rgb(51,51,51)" text-rendering="geometricPrecision" font-family="sans-serif" transform="matrix(1,0,0,1,485,455)" stroke="rgb(51,51,51)">
            <text x="0" xml:space="preserve" y="12" clip-path="url(#clipPath3)" stroke="none">program transform</text>
        </g>
        <g text-rendering="optimizeLegibility" stroke-dasharray="5" stroke-miterlimit="1" font-family="sans-serif" stroke-linejoin="bevel">
            <path fill="none" d="M36.519 572.3765 L251.0519 556.1484" clip-path="url(#clipPath1)"/>
        </g>
        <g font-family="sans-serif" text-rendering="optimizeLegibility">
            <path d="M226.7493 557.9868 L217.0795 562.7297 L220.7664 558.4393 L216.4761 554.7524 L226.7493 557.9868" clip-path="url(#clipPath1)" stroke="none"/>
            <path fill="none" d="M226.7493 557.9868 L217.0795 562.7297 L220.7664 558.4393 L216.4761 554.7524 L226.7493 557.9868" clip-path="url(#clipPath1)"/>
        </g>
        <g fill="rgb(51,51,51)" text-rendering="geometricPrecision" font-family="sans-serif" transform="matrix(1,0,0,1,148,560)" stroke="rgb(51,51,51)">
            <text x="0" xml:space="preserve" y="12" clip-path="url(#clipPath5)" stroke="none">package</text>
        </g>
        <g text-rendering="optimizeLegibility" stroke-dasharray="1,3" stroke-miterlimit="1" font-family="sans-serif" stroke-linejoin="round" stroke-linecap="round">
            <path fill="none" d="M932.6753 373.2704 L784.4276 425.0155" clip-path="url(#clipPath1)"/>
        </g>
        <g fill="rgb(51,51,51)" text-rendering="geometricPrecision" font-family="sans-serif" transform="matrix(1,0,0,1,810,386)" stroke="rgb(51,51,51)">
            <text x="0" xml:space="preserve" y="12" clip-path="url(#clipPath7)" stroke="none">style and format</text>
        </g>
        <g font-family="sans-serif" text-rendering="optimizeLegibility">
            <path fill="none" d="M241.4667 139.574 L577.5712 247.2057" clip-path="url(#clipPath1)"/>
        </g>
        <g font-family="sans-serif" text-rendering="optimizeLegibility">
            <path d="M559.1084 241.2933 L548.3649 242.053 L553.3942 239.4634 L550.8047 234.4341 L559.1084 241.2933" clip-path="url(#clipPath1)" stroke="none"/>
            <path fill="none" d="M559.1084 241.2933 L548.3649 242.053 L553.3942 239.4634 L550.8047 234.4341 L559.1084 241.2933" clip-path="url(#clipPath1)"/>
        </g>
        <g fill="rgb(51,51,51)" text-rendering="geometricPrecision" font-family="sans-serif" transform="matrix(1,0,0,1,433,208)" stroke="rgb(51,51,51)">
            <text x="0" xml:space="preserve" y="12" clip-path="url(#clipPath9)" stroke="none">native-db</text>
        </g>
        <g text-rendering="optimizeLegibility" stroke-dasharray="1,3" stroke-miterlimit="1" font-family="sans-serif" stroke-linejoin="round" stroke-linecap="round">
            <path fill="none" d="M784.4276 425.0155 L577.5712 247.2057" clip-path="url(#clipPath1)"/>
        </g>
        <g fill="rgb(51,51,51)" text-rendering="geometricPrecision" font-family="sans-serif" transform="matrix(1,0,0,1,644,321)" stroke="rgb(51,51,51)">
            <text x="0" xml:space="preserve" y="12" clip-path="url(#clipPath11)" stroke="none">validation</text>
        </g>
        <g text-rendering="optimizeLegibility" stroke-dasharray="1,3" stroke-miterlimit="1" font-family="sans-serif" stroke-linejoin="round" stroke-linecap="round">
            <path fill="none" d="M483.2713 465.3304 L577.5712 247.2057" clip-path="url(#clipPath1)"/>
        </g>
        <g font-family="sans-serif" text-rendering="optimizeLegibility">
            <path d="M573.5192 256.5782 L573.2225 267.3445 L571.1382 262.0856 L565.8794 264.1699 L573.5192 256.5782" clip-path="url(#clipPath1)" stroke="none"/>
            <path fill="none" d="M573.5192 256.5782 L573.2225 267.3445 L571.1382 262.0856 L565.8794 264.1699 L573.5192 256.5782" clip-path="url(#clipPath1)"/>
        </g>
        <g fill="rgb(51,51,51)" text-rendering="geometricPrecision" font-family="sans-serif" transform="matrix(1,0,0,1,507,328)" stroke="rgb(51,51,51)">
            <text x="0" xml:space="preserve" y="12" clip-path="url(#clipPath13)" stroke="none">selection</text>
        </g>
        <g font-family="sans-serif" text-rendering="optimizeLegibility">
            <path fill="none" d="M251.0519 556.1484 L483.2713 465.3304" clip-path="url(#clipPath1)"/>
        </g>
        <g font-family="sans-serif" text-rendering="optimizeLegibility">
            <path d="M466.9434 471.716 L459.0872 479.0835 L461.3555 473.9014 L456.1734 471.633 L466.9434 471.716" clip-path="url(#clipPath1)" stroke="none"/>
            <path fill="none" d="M466.9434 471.716 L459.0872 479.0835 L461.3555 473.9014 L456.1734 471.633 L466.9434 471.716" clip-path="url(#clipPath1)"/>
        </g>
        <g fill="rgb(51,51,51)" text-rendering="geometricPrecision" font-family="sans-serif" transform="matrix(1,0,0,1,344,496)" stroke="rgb(51,51,51)">
            <text x="0" xml:space="preserve" y="12" clip-path="url(#clipPath15)" stroke="none">XPath extensions</text>
        </g>
        <g font-family="sans-serif" text-rendering="optimizeLegibility">
            <path fill="none" d="M30.0932 435.4545 L36.519 572.3765" clip-path="url(#clipPath1)"/>
        </g>
        <g font-family="sans-serif" text-rendering="optimizeLegibility">
            <path d="M36.0672 562.7492 L31.6028 552.9477 L35.7859 556.7558 L39.594 552.5727 L36.0672 562.7492" clip-path="url(#clipPath1)" stroke="none"/>
            <path fill="none" d="M36.0672 562.7492 L31.6028 552.9477 L35.7859 556.7558 L39.594 552.5727 L36.0672 562.7492" clip-path="url(#clipPath1)"/>
        </g>
        <g fill="rgb(51,51,51)" text-rendering="geometricPrecision" font-family="sans-serif" transform="matrix(1,0,0,1,31,532)" stroke="rgb(51,51,51)">
            <text x="0" xml:space="preserve" y="12" clip-path="url(#clipPath17)" stroke="none">app</text>
        </g>
        <g text-rendering="optimizeLegibility" stroke-dasharray="5" stroke-miterlimit="1" font-family="sans-serif" stroke-linejoin="bevel">
            <path fill="none" d="M131.5397 28.3003 L241.4667 139.574" clip-path="url(#clipPath1)"/>
        </g>
        <g font-family="sans-serif" text-rendering="optimizeLegibility">
            <path d="M231.161 129.1421 L221.2876 124.8393 L226.9443 124.8737 L226.9787 119.217 L231.161 129.1421" clip-path="url(#clipPath1)" stroke="none"/>
            <path fill="none" d="M231.161 129.1421 L221.2876 124.8393 L226.9443 124.8737 L226.9787 119.217 L231.161 129.1421" clip-path="url(#clipPath1)"/>
        </g>
        <g fill="rgb(51,51,51)" text-rendering="geometricPrecision" font-family="sans-serif" transform="matrix(1,0,0,1,188,101)" stroke="rgb(51,51,51)">
            <text x="0" xml:space="preserve" y="12" clip-path="url(#clipPath19)" stroke="none">extend</text>
        </g>
        <g text-rendering="optimizeLegibility" stroke-dasharray="1,3" stroke-miterlimit="1" font-family="sans-serif" stroke-linejoin="round" stroke-linecap="round">
            <path fill="none" d="M771.0428 56.8115 L577.5712 247.2057" clip-path="url(#clipPath1)"/>
        </g>
        <g font-family="sans-serif" text-rendering="optimizeLegibility">
            <path d="M587.7738 237.1654 L592.0956 227.3002 L592.0503 232.9569 L597.707 233.0022 L587.7738 237.1654" clip-path="url(#clipPath1)" stroke="none"/>
            <path fill="none" d="M587.7738 237.1654 L592.0956 227.3002 L592.0503 232.9569 L597.707 233.0022 L587.7738 237.1654" clip-path="url(#clipPath1)"/>
        </g>
        <g fill="rgb(51,51,51)" text-rendering="geometricPrecision" font-family="sans-serif" transform="matrix(1,0,0,1,640,165)" stroke="rgb(51,51,51)">
            <text x="0" xml:space="preserve" y="12" clip-path="url(#clipPath17)" stroke="none">edit</text>
        </g>
        <g text-rendering="optimizeLegibility" stroke-dasharray="1,3" stroke-miterlimit="1" font-family="sans-serif" stroke-linejoin="round" stroke-linecap="round">
            <path fill="none" d="M636.4671 373.3853 L577.5712 247.2057" clip-path="url(#clipPath1)"/>
        </g>
        <g font-family="sans-serif" text-rendering="optimizeLegibility">
            <path d="M582.2012 257.1251 L590.0554 264.4948 L584.7389 262.562 L582.8062 267.8784 L582.2012 257.1251" clip-path="url(#clipPath1)" stroke="none"/>
            <path fill="none" d="M582.2012 257.1251 L590.0554 264.4948 L584.7389 262.562 L582.8062 267.8784 L582.2012 257.1251" clip-path="url(#clipPath1)"/>
        </g>
        <g fill="rgb(51,51,51)" text-rendering="geometricPrecision" font-family="sans-serif" transform="matrix(1,0,0,1,563,273)" stroke="rgb(51,51,51)">
            <text x="0" xml:space="preserve" y="12" clip-path="url(#clipPath22)" stroke="none">program</text>
        </g>
        <g text-rendering="optimizeLegibility" stroke-dasharray="1,3" stroke-miterlimit="1" font-family="sans-serif" stroke-linejoin="round" stroke-linecap="round">
            <path fill="none" d="M636.4671 373.3853 L483.2713 465.3304" clip-path="url(#clipPath1)"/>
        </g>
        <g font-family="sans-serif" text-rendering="optimizeLegibility">
            <path d="M500.0271 455.2739 L506.5429 446.6981 L505.1716 452.1862 L510.6598 453.5575 L500.0271 455.2739" clip-path="url(#clipPath1)" stroke="none"/>
            <path fill="none" d="M500.0271 455.2739 L506.5429 446.6981 L505.1716 452.1862 L510.6598 453.5575 L500.0271 455.2739" clip-path="url(#clipPath1)"/>
        </g>
        <g fill="rgb(51,51,51)" text-rendering="geometricPrecision" font-family="sans-serif" transform="matrix(1,0,0,1,515,419)" stroke="rgb(51,51,51)">
            <text x="0" xml:space="preserve" y="12" clip-path="url(#clipPath22)" stroke="none">program</text>
        </g>
        <g text-rendering="optimizeLegibility" stroke-dasharray="1,3" stroke-miterlimit="1" font-family="sans-serif" stroke-linejoin="round" stroke-linecap="round">
            <path fill="none" d="M784.4276 425.0155 L940.252 553.9852" clip-path="url(#clipPath1)"/>
        </g>
        <g fill="rgb(51,51,51)" text-rendering="geometricPrecision" font-family="sans-serif" transform="matrix(1,0,0,1,770,490)" stroke="rgb(51,51,51)">
            <text x="0" xml:space="preserve" y="12" clip-path="url(#clipPath25)" stroke="none">device independent interaction</text>
        </g>
        <g text-rendering="optimizeLegibility" stroke-dasharray="1,3" stroke-miterlimit="1" font-family="sans-serif" stroke-linejoin="round" stroke-linecap="round">
            <path fill="none" d="M636.4671 373.3853 L784.4276 425.0155" clip-path="url(#clipPath1)"/>
        </g>
        <g font-family="sans-serif" text-rendering="optimizeLegibility">
            <path d="M768.2444 419.3684 L757.4849 419.8505 L762.5793 417.3917 L760.1205 412.2971 L768.2444 419.3684" clip-path="url(#clipPath1)" stroke="none"/>
            <path fill="none" d="M768.2444 419.3684 L757.4849 419.8505 L762.5793 417.3917 L760.1205 412.2971 L768.2444 419.3684" clip-path="url(#clipPath1)"/>
        </g>
        <g fill="rgb(51,51,51)" text-rendering="geometricPrecision" font-family="sans-serif" transform="matrix(1,0,0,1,709,405)" stroke="rgb(51,51,51)">
            <text x="0" xml:space="preserve" y="12" clip-path="url(#clipPath22)" stroke="none">program</text>
        </g>
        <g font-family="sans-serif" text-rendering="optimizeLegibility">
            <path fill="none" d="M30.0932 435.4545 L31.962 254.506" clip-path="url(#clipPath1)"/>
        </g>
        <g font-family="sans-serif" text-rendering="optimizeLegibility">
            <path d="M31.8598 264.4016 L35.7563 274.4424 L31.7979 270.4013 L27.7568 274.3597 L31.8598 264.4016" clip-path="url(#clipPath1)" stroke="none"/>
            <path fill="none" d="M31.8598 264.4016 L35.7563 274.4424 L31.7979 270.4013 L27.7568 274.3597 L31.8598 264.4016" clip-path="url(#clipPath1)"/>
        </g>
        <g fill="rgb(51,51,51)" text-rendering="geometricPrecision" font-family="sans-serif" transform="matrix(1,0,0,1,12,325)" stroke="rgb(51,51,51)">
            <text x="0" xml:space="preserve" y="12" clip-path="url(#clipPath28)" stroke="none">IDE</text>
        </g>
        <g text-rendering="optimizeLegibility" stroke-dasharray="1,3" stroke-miterlimit="1" font-family="sans-serif" stroke-linejoin="round" stroke-linecap="round">
            <path fill="none" d="M659.594 473.1819 L784.4276 425.0155" clip-path="url(#clipPath1)"/>
        </g>
        <g fill="rgb(51,51,51)" text-rendering="geometricPrecision" font-family="sans-serif" transform="matrix(1,0,0,1,689,463)" stroke="rgb(51,51,51)">
            <text x="0" xml:space="preserve" y="12" clip-path="url(#clipPath30)" stroke="none">transform</text>
        </g>
        <g text-rendering="optimizeLegibility" stroke-dasharray="1,3" stroke-miterlimit="1" font-family="sans-serif" stroke-linejoin="round" stroke-linecap="round">
            <path fill="none" d="M599.4264 30.3837 L577.5712 247.2057" clip-path="url(#clipPath1)"/>
        </g>
        <g font-family="sans-serif" text-rendering="optimizeLegibility">
            <path d="M578.5956 237.0422 L575.6187 226.6914 L579.1974 231.0724 L583.5784 227.4937 L578.5956 237.0422" clip-path="url(#clipPath1)" stroke="none"/>
            <path fill="none" d="M578.5956 237.0422 L575.6187 226.6914 L579.1974 231.0724 L583.5784 227.4937 L578.5956 237.0422" clip-path="url(#clipPath1)"/>
        </g>
        <g fill="rgb(51,51,51)" text-rendering="geometricPrecision" font-family="sans-serif" transform="matrix(1,0,0,1,582,150)" stroke="rgb(51,51,51)">
            <text x="0" xml:space="preserve" y="12" clip-path="url(#clipPath17)" stroke="none">edit</text>
        </g>
        <g text-rendering="optimizeLegibility" stroke-dasharray="1,3" stroke-miterlimit="1" font-family="sans-serif" stroke-linejoin="round" stroke-linecap="round">
            <path fill="none" d="M659.594 473.1819 L784.4276 425.0155" clip-path="url(#clipPath1)"/>
        </g>
        <g font-family="sans-serif" text-rendering="optimizeLegibility">
            <path d="M768.8234 431.0363 L760.9337 438.3679 L763.2256 433.1962 L758.0538 430.9042 L768.8234 431.0363" clip-path="url(#clipPath1)" stroke="none"/>
            <path fill="none" d="M768.8234 431.0363 L760.9337 438.3679 L763.2256 433.1962 L758.0538 430.9042 L768.8234 431.0363" clip-path="url(#clipPath1)"/>
        </g>
        <g fill="rgb(51,51,51)" text-rendering="geometricPrecision" font-family="sans-serif" transform="matrix(1,0,0,1,678,440)" stroke="rgb(51,51,51)">
            <text x="0" xml:space="preserve" y="12" clip-path="url(#clipPath3)" stroke="none">program transform</text>
        </g>
        <g text-rendering="optimizeLegibility" stroke-dasharray="5" stroke-miterlimit="1" font-family="sans-serif" stroke-linejoin="bevel">
            <path fill="none" d="M31.962 254.506 L241.4667 139.574" clip-path="url(#clipPath1)"/>
        </g>
        <g font-family="sans-serif" text-rendering="optimizeLegibility">
            <path d="M223.0532 149.6755 L216.2097 157.9921 L217.7928 152.5613 L212.3619 150.9782 L223.0532 149.6755" clip-path="url(#clipPath1)" stroke="none"/>
            <path fill="none" d="M223.0532 149.6755 L216.2097 157.9921 L217.7928 152.5613 L212.3619 150.9782 L223.0532 149.6755" clip-path="url(#clipPath1)"/>
        </g>
        <g fill="rgb(51,51,51)" text-rendering="geometricPrecision" font-family="sans-serif" transform="matrix(1,0,0,1,143,179)" stroke="rgb(51,51,51)">
            <text x="0" xml:space="preserve" y="12" clip-path="url(#clipPath19)" stroke="none">extend</text>
        </g>
        <g text-rendering="optimizeLegibility" stroke-dasharray="5" stroke-miterlimit="1" font-family="sans-serif" stroke-linejoin="bevel">
            <path fill="none" d="M36.6124 29.9362 L241.4667 139.574" clip-path="url(#clipPath1)"/>
        </g>
        <g font-family="sans-serif" text-rendering="optimizeLegibility">
            <path d="M222.2616 129.2955 L211.5574 128.1035 L216.9716 126.4643 L215.3324 121.0501 L222.2616 129.2955" clip-path="url(#clipPath1)" stroke="none"/>
            <path fill="none" d="M222.2616 129.2955 L211.5574 128.1035 L216.9716 126.4643 L215.3324 121.0501 L222.2616 129.2955" clip-path="url(#clipPath1)"/>
        </g>
        <g fill="rgb(51,51,51)" text-rendering="geometricPrecision" font-family="sans-serif" transform="matrix(1,0,0,1,152,101)" stroke="rgb(51,51,51)">
            <text x="0" xml:space="preserve" y="12" clip-path="url(#clipPath19)" stroke="none">extend</text>
        </g>
        <g text-rendering="optimizeLegibility" stroke-dasharray="1,3" stroke-miterlimit="1" font-family="sans-serif" stroke-linejoin="round" stroke-linecap="round">
            <path fill="none" d="M659.594 473.1819 L577.5712 247.2057" clip-path="url(#clipPath1)"/>
        </g>
        <g font-family="sans-serif" text-rendering="optimizeLegibility">
            <path d="M581.416 257.7983 L588.5879 265.8335 L583.4631 263.4383 L581.0679 268.563 L581.416 257.7983" clip-path="url(#clipPath1)" stroke="none"/>
            <path fill="none" d="M581.416 257.7983 L588.5879 265.8335 L583.4631 263.4383 L581.0679 268.563 L581.416 257.7983" clip-path="url(#clipPath1)"/>
        </g>
        <g fill="rgb(51,51,51)" text-rendering="geometricPrecision" font-family="sans-serif" transform="matrix(1,0,0,1,538,307)" stroke="rgb(51,51,51)">
            <text x="0" xml:space="preserve" y="12" clip-path="url(#clipPath3)" stroke="none">program transform</text>
        </g>
        <g fill="white" text-rendering="optimizeLegibility" font-family="sans-serif" stroke="white">
            <path d="M115.6124 29.9362 C115.6124 35.4591 92.3312 39.9362 63.6124 39.9362 C34.8935 39.9362 11.6124 35.4591 11.6124 29.9362 C11.6124 24.4134 34.8935 19.9362 63.6124 19.9362 C92.3312 19.9362 115.6124 24.4134 115.6124 29.9362 Z" clip-path="url(#clipPath1)" stroke="none"/>
        </g>
        <g text-rendering="optimizeLegibility" stroke-dasharray="10" font-family="sans-serif" stroke-linecap="butt">
            <path fill="none" d="M115.6124 29.9362 C115.6124 35.4591 92.3312 39.9362 63.6124 39.9362 C34.8935 39.9362 11.6124 35.4591 11.6124 29.9362 C11.6124 24.4134 34.8935 19.9362 63.6124 19.9362 C92.3312 19.9362 115.6124 24.4134 115.6124 29.9362 Z" clip-path="url(#clipPath1)"/>
        </g>
        <g fill="rgb(51,51,51)" text-rendering="geometricPrecision" font-family="sans-serif" transform="translate(33,22)" stroke="rgb(51,51,51)">
            <text x="0" xml:space="preserve" y="12" clip-path="url(#clipPath30)" stroke="none">extension</text>
        </g>
        <g fill="white" text-rendering="optimizeLegibility" font-family="sans-serif" stroke="white">
            <path d="M85.0932 435.4545 C85.0932 440.9773 67.1845 445.4545 45.0932 445.4545 C23.0018 445.4545 5.0932 440.9773 5.0932 435.4545 C5.0932 429.9316 23.0018 425.4545 45.0932 425.4545 C67.1845 425.4545 85.0932 429.9316 85.0932 435.4545 Z" clip-path="url(#clipPath1)" stroke="none"/>
        </g>
        <g text-rendering="optimizeLegibility" stroke-dasharray="10" font-family="sans-serif" stroke-linecap="butt">
            <path fill="none" d="M85.0932 435.4545 C85.0932 440.9773 67.1845 445.4545 45.0932 445.4545 C23.0018 445.4545 5.0932 440.9773 5.0932 435.4545 C5.0932 429.9316 23.0018 425.4545 45.0932 425.4545 C67.1845 425.4545 85.0932 429.9316 85.0932 435.4545 Z" clip-path="url(#clipPath1)"/>
        </g>
        <g fill="rgb(51,51,51)" text-rendering="geometricPrecision" font-family="sans-serif" transform="translate(28,428)" stroke="rgb(51,51,51)">
            <text x="0" xml:space="preserve" y="12" clip-path="url(#clipPath36)" stroke="none">eXide</text>
        </g>
        <g fill="white" text-rendering="optimizeLegibility" font-family="sans-serif" stroke="white">
            <path d="M538.2713 465.3304 C538.2713 470.8532 520.3627 475.3304 498.2713 475.3304 C476.1799 475.3304 458.2713 470.8532 458.2713 465.3304 C458.2713 459.8075 476.1799 455.3304 498.2713 455.3304 C520.3627 455.3304 538.2713 459.8075 538.2713 465.3304 Z" clip-path="url(#clipPath1)" stroke="none"/>
            <path fill="none" stroke-width="2" d="M538.2713 465.3304 C538.2713 470.8532 520.3627 475.3304 498.2713 475.3304 C476.1799 475.3304 458.2713 470.8532 458.2713 465.3304 C458.2713 459.8075 476.1799 455.3304 498.2713 455.3304 C520.3627 455.3304 538.2713 459.8075 538.2713 465.3304 Z" clip-path="url(#clipPath1)" stroke="black"/>
        </g>
        <g fill="rgb(51,51,51)" text-rendering="geometricPrecision" font-family="sans-serif" transform="translate(480,458)" stroke="rgb(51,51,51)">
            <text x="0" xml:space="preserve" y="12" clip-path="url(#clipPath37)" stroke="none">XPath</text>
        </g>
        <g fill="white" text-rendering="optimizeLegibility" font-family="sans-serif" stroke="white">
            <path d="M312.0519 556.1484 C312.0519 561.6713 292.8001 566.1484 269.0519 566.1484 C245.3036 566.1484 226.0519 561.6713 226.0519 556.1484 C226.0519 550.6256 245.3036 546.1484 269.0519 546.1484 C292.8001 546.1484 312.0519 550.6256 312.0519 556.1484 Z" clip-path="url(#clipPath1)" stroke="none"/>
            <path fill="none" stroke-width="2" d="M312.0519 556.1484 C312.0519 561.6713 292.8001 566.1484 269.0519 566.1484 C245.3036 566.1484 226.0519 561.6713 226.0519 556.1484 C226.0519 550.6256 245.3036 546.1484 269.0519 546.1484 C292.8001 546.1484 312.0519 550.6256 312.0519 556.1484 Z" clip-path="url(#clipPath1)" stroke="black"/>
        </g>
        <g fill="rgb(51,51,51)" text-rendering="geometricPrecision" font-family="sans-serif" transform="translate(248,549)" stroke="rgb(51,51,51)">
            <text x="0" xml:space="preserve" y="12" clip-path="url(#clipPath19)" stroke="none">expath</text>
        </g>
        <g fill="white" text-rendering="optimizeLegibility" font-family="sans-serif" stroke="white">
            <path d="M863.4276 425.0155 C863.4276 430.5384 840.1464 435.0155 811.4276 435.0155 C782.7087 435.0155 759.4276 430.5384 759.4276 425.0155 C759.4276 419.4926 782.7087 415.0155 811.4276 415.0155 C840.1464 415.0155 863.4276 419.4926 863.4276 425.0155 Z" clip-path="url(#clipPath1)" stroke="none"/>
            <path fill="none" stroke-width="2" d="M863.4276 425.0155 C863.4276 430.5384 840.1464 435.0155 811.4276 435.0155 C782.7087 435.0155 759.4276 430.5384 759.4276 425.0155 C759.4276 419.4926 782.7087 415.0155 811.4276 415.0155 C840.1464 415.0155 863.4276 419.4926 863.4276 425.0155 Z" clip-path="url(#clipPath1)" stroke="black"/>
        </g>
        <g fill="rgb(51,51,51)" text-rendering="geometricPrecision" font-family="sans-serif" transform="translate(775,418)" stroke="rgb(51,51,51)">
            <text x="0" xml:space="preserve" y="12" clip-path="url(#clipPath38)" stroke="none">XMLSchema</text>
        </g>
        <g fill="white" text-rendering="optimizeLegibility" font-family="sans-serif" stroke="white">
            <path d="M1001.252 553.9852 C1001.252 559.5081 982.0002 563.9852 958.252 563.9852 C934.5038 563.9852 915.252 559.5081 915.252 553.9852 C915.252 548.4624 934.5038 543.9852 958.252 543.9852 C982.0002 543.9852 1001.252 548.4624 1001.252 553.9852 Z" clip-path="url(#clipPath1)" stroke="none"/>
            <path fill="none" stroke-width="2" d="M1001.252 553.9852 C1001.252 559.5081 982.0002 563.9852 958.252 563.9852 C934.5038 563.9852 915.252 559.5081 915.252 553.9852 C915.252 548.4624 934.5038 543.9852 958.252 543.9852 C982.0002 543.9852 1001.252 548.4624 1001.252 553.9852 Z" clip-path="url(#clipPath1)" stroke="black"/>
        </g>
        <g fill="rgb(51,51,51)" text-rendering="geometricPrecision" font-family="sans-serif" transform="translate(936,546)" stroke="rgb(51,51,51)">
            <text x="0" xml:space="preserve" y="12" clip-path="url(#clipPath17)" stroke="none">XForms</text>
        </g>
        <g fill="white" text-rendering="optimizeLegibility" font-family="sans-serif" stroke="white">
            <path d="M79.519 572.3765 C79.519 577.8994 64.2967 582.3765 45.519 582.3765 C26.7413 582.3765 11.519 577.8994 11.519 572.3765 C11.519 566.8537 26.7413 562.3765 45.519 562.3765 C64.2967 562.3765 79.519 566.8537 79.519 572.3765 Z" clip-path="url(#clipPath1)" stroke="none"/>
            <path fill="none" stroke-width="2" d="M79.519 572.3765 C79.519 577.8994 64.2967 582.3765 45.519 582.3765 C26.7413 582.3765 11.519 577.8994 11.519 572.3765 C11.519 566.8537 26.7413 562.3765 45.519 562.3765 C64.2967 562.3765 79.519 566.8537 79.519 572.3765 Z" clip-path="url(#clipPath1)" stroke="black"/>
        </g>
        <g fill="rgb(51,51,51)" text-rendering="geometricPrecision" font-family="sans-serif" transform="translate(34,565)" stroke="rgb(51,51,51)">
            <text x="0" xml:space="preserve" y="12" clip-path="url(#clipPath39)" stroke="none">XAR</text>
        </g>
        <g fill="white" text-rendering="optimizeLegibility" font-family="sans-serif" stroke="white">
            <path d="M620.5712 247.2057 C620.5712 252.7285 605.3489 257.2057 586.5712 257.2057 C567.7935 257.2057 552.5712 252.7285 552.5712 247.2057 C552.5712 241.6828 567.7935 237.2057 586.5712 237.2057 C605.3489 237.2057 620.5712 241.6828 620.5712 247.2057 Z" clip-path="url(#clipPath1)" stroke="none"/>
            <path fill="none" stroke-width="2" d="M620.5712 247.2057 C620.5712 252.7285 605.3489 257.2057 586.5712 257.2057 C567.7935 257.2057 552.5712 252.7285 552.5712 247.2057 C552.5712 241.6828 567.7935 237.2057 586.5712 237.2057 C605.3489 237.2057 620.5712 241.6828 620.5712 247.2057 Z" clip-path="url(#clipPath1)" stroke="black"/>
        </g>
        <g fill="rgb(51,51,51)" text-rendering="geometricPrecision" font-family="sans-serif" transform="translate(575,240)" stroke="rgb(51,51,51)">
            <text x="0" xml:space="preserve" y="12" clip-path="url(#clipPath39)" stroke="none">XML</text>
        </g>
        <g fill="white" text-rendering="optimizeLegibility" font-family="sans-serif" stroke="white">
            <path d="M216.4667 129.574 L314.4667 129.574 L314.4667 149.574 L216.4667 149.574 L216.4667 129.574 Z" clip-path="url(#clipPath1)" stroke="none"/>
            <path fill="none" stroke-width="2" d="M216.4667 129.574 L314.4667 129.574 L314.4667 149.574 L216.4667 149.574 L216.4667 129.574 Z" clip-path="url(#clipPath1)" stroke="black"/>
        </g>
        <g fill="rgb(51,51,51)" text-rendering="geometricPrecision" font-family="sans-serif" transform="translate(240,132)" stroke="rgb(51,51,51)">
            <text x="0" xml:space="preserve" y="12" clip-path="url(#clipPath40)" stroke="none">eXist-db</text>
        </g>
        <g fill="white" text-rendering="optimizeLegibility" font-family="sans-serif" stroke="white">
            <path d="M993.6753 373.2704 C993.6753 378.7932 974.4235 383.2704 950.6753 383.2704 C926.9271 383.2704 907.6753 378.7932 907.6753 373.2704 C907.6753 367.7475 926.9271 363.2704 950.6753 363.2704 C974.4235 363.2704 993.6753 367.7475 993.6753 373.2704 Z" clip-path="url(#clipPath1)" stroke="none"/>
            <path fill="none" stroke-width="2" d="M993.6753 373.2704 C993.6753 378.7932 974.4235 383.2704 950.6753 383.2704 C926.9271 383.2704 907.6753 378.7932 907.6753 373.2704 C907.6753 367.7475 926.9271 363.2704 950.6753 363.2704 C974.4235 363.2704 993.6753 367.7475 993.6753 373.2704 Z" clip-path="url(#clipPath1)" stroke="black"/>
        </g>
        <g fill="rgb(51,51,51)" text-rendering="geometricPrecision" font-family="sans-serif" transform="translate(930,366)" stroke="rgb(51,51,51)">
            <text x="0" xml:space="preserve" y="12" clip-path="url(#clipPath41)" stroke="none">XSL-FO</text>
        </g>
        <g fill="white" text-rendering="optimizeLegibility" font-family="sans-serif" stroke="white">
            <path d="M697.4671 373.3853 C697.4671 378.9082 678.2153 383.3853 654.4671 383.3853 C630.7189 383.3853 611.4671 378.9082 611.4671 373.3853 C611.4671 367.8625 630.7189 363.3853 654.4671 363.3853 C678.2153 363.3853 697.4671 367.8625 697.4671 373.3853 Z" clip-path="url(#clipPath1)" stroke="none"/>
            <path fill="none" stroke-width="2" d="M697.4671 373.3853 C697.4671 378.9082 678.2153 383.3853 654.4671 383.3853 C630.7189 383.3853 611.4671 378.9082 611.4671 373.3853 C611.4671 367.8625 630.7189 363.3853 654.4671 363.3853 C678.2153 363.3853 697.4671 367.8625 697.4671 373.3853 Z" clip-path="url(#clipPath1)" stroke="black"/>
        </g>
        <g fill="rgb(51,51,51)" text-rendering="geometricPrecision" font-family="sans-serif" transform="translate(633,366)" stroke="rgb(51,51,51)">
            <text x="0" xml:space="preserve" y="12" clip-path="url(#clipPath19)" stroke="none">XQuery</text>
        </g>
        <g fill="white" text-rendering="optimizeLegibility" font-family="sans-serif" stroke="white">
            <path d="M192.5397 28.3003 C192.5397 33.8231 173.288 38.3003 149.5397 38.3003 C125.7915 38.3003 106.5397 33.8231 106.5397 28.3003 C106.5397 22.7774 125.7915 18.3003 149.5397 18.3003 C173.288 18.3003 192.5397 22.7774 192.5397 28.3003 Z" clip-path="url(#clipPath1)" stroke="none"/>
        </g>
        <g text-rendering="optimizeLegibility" stroke-dasharray="10" font-family="sans-serif" stroke-linecap="butt">
            <path fill="none" d="M192.5397 28.3003 C192.5397 33.8231 173.288 38.3003 149.5397 38.3003 C125.7915 38.3003 106.5397 33.8231 106.5397 28.3003 C106.5397 22.7774 125.7915 18.3003 149.5397 18.3003 C173.288 18.3003 192.5397 22.7774 192.5397 28.3003 Z" clip-path="url(#clipPath1)"/>
        </g>
        <g fill="rgb(51,51,51)" text-rendering="geometricPrecision" font-family="sans-serif" transform="translate(126,21)" stroke="rgb(51,51,51)">
            <text x="0" xml:space="preserve" y="12" clip-path="url(#clipPath42)" stroke="none">module</text>
        </g>
        <g fill="white" text-rendering="optimizeLegibility" font-family="sans-serif" stroke="white">
            <path d="M844.0428 56.8115 C844.0428 62.3343 822.1048 66.8115 795.0428 66.8115 C767.9809 66.8115 746.0428 62.3343 746.0428 56.8115 C746.0428 51.2887 767.9809 46.8115 795.0428 46.8115 C822.1048 46.8115 844.0428 51.2887 844.0428 56.8115 Z" clip-path="url(#clipPath1)" stroke="none"/>
            <path fill="none" stroke-width="2" d="M844.0428 56.8115 C844.0428 62.3343 822.1048 66.8115 795.0428 66.8115 C767.9809 66.8115 746.0428 62.3343 746.0428 56.8115 C746.0428 51.2887 767.9809 46.8115 795.0428 46.8115 C822.1048 46.8115 844.0428 51.2887 844.0428 56.8115 Z" clip-path="url(#clipPath1)" stroke="black"/>
        </g>
        <g fill="rgb(51,51,51)" text-rendering="geometricPrecision" font-family="sans-serif" transform="translate(764,49)" stroke="rgb(51,51,51)">
            <text x="0" xml:space="preserve" y="12" clip-path="url(#clipPath43)" stroke="none">XQUpdate</text>
        </g>
        <g fill="white" text-rendering="optimizeLegibility" font-family="sans-serif" stroke="white">
            <path d="M708.594 473.1819 C708.594 478.7047 692.0285 483.1819 671.594 483.1819 C651.1595 483.1819 634.594 478.7047 634.594 473.1819 C634.594 467.659 651.1595 463.1819 671.594 463.1819 C692.0285 463.1819 708.594 467.659 708.594 473.1819 Z" clip-path="url(#clipPath1)" stroke="none"/>
            <path fill="none" stroke-width="2" d="M708.594 473.1819 C708.594 478.7047 692.0285 483.1819 671.594 483.1819 C651.1595 483.1819 634.594 478.7047 634.594 473.1819 C634.594 467.659 651.1595 463.1819 671.594 463.1819 C692.0285 463.1819 708.594 467.659 708.594 473.1819 Z" clip-path="url(#clipPath1)" stroke="black"/>
        </g>
        <g fill="rgb(51,51,51)" text-rendering="geometricPrecision" font-family="sans-serif" transform="translate(657,466)" stroke="rgb(51,51,51)">
            <text x="0" xml:space="preserve" y="12" clip-path="url(#clipPath44)" stroke="none">XSLT</text>
        </g>
        <g fill="white" text-rendering="optimizeLegibility" font-family="sans-serif" stroke="white">
            <path d="M74.962 254.506 C74.962 260.0288 59.7397 264.506 40.962 264.506 C22.1844 264.506 6.962 260.0288 6.962 254.506 C6.962 248.9831 22.1844 244.506 40.962 244.506 C59.7397 244.506 74.962 248.9831 74.962 254.506 Z" clip-path="url(#clipPath1)" stroke="none"/>
        </g>
        <g text-rendering="optimizeLegibility" stroke-dasharray="10" font-family="sans-serif" stroke-linecap="butt">
            <path fill="none" d="M74.962 254.506 C74.962 260.0288 59.7397 264.506 40.962 264.506 C22.1844 264.506 6.962 260.0288 6.962 254.506 C6.962 248.9831 22.1844 244.506 40.962 244.506 C59.7397 244.506 74.962 248.9831 74.962 254.506 Z" clip-path="url(#clipPath1)"/>
        </g>
        <g fill="rgb(51,51,51)" text-rendering="geometricPrecision" font-family="sans-serif" transform="translate(28,247)" stroke="rgb(51,51,51)">
            <text x="0" xml:space="preserve" y="12" clip-path="url(#clipPath17)" stroke="none">app</text>
        </g>
        <g fill="white" text-rendering="optimizeLegibility" font-family="sans-serif" stroke="white">
            <path d="M666.4264 30.3837 C666.4264 35.9065 645.8315 40.3837 620.4264 40.3837 C595.0213 40.3837 574.4264 35.9065 574.4264 30.3837 C574.4264 24.8608 595.0213 20.3837 620.4264 20.3837 C645.8315 20.3837 666.4264 24.8608 666.4264 30.3837 Z" clip-path="url(#clipPath1)" stroke="none"/>
            <path fill="none" stroke-width="2" d="M666.4264 30.3837 C666.4264 35.9065 645.8315 40.3837 620.4264 40.3837 C595.0213 40.3837 574.4264 35.9065 574.4264 30.3837 C574.4264 24.8608 595.0213 20.3837 620.4264 20.3837 C645.8315 20.3837 666.4264 24.8608 666.4264 30.3837 Z" clip-path="url(#clipPath1)" stroke="black"/>
        </g>
        <g fill="rgb(51,51,51)" text-rendering="geometricPrecision" font-family="sans-serif" transform="translate(594,23)" stroke="rgb(51,51,51)">
            <text x="0" xml:space="preserve" y="12" clip-path="url(#clipPath22)" stroke="none">XUpdate</text>
        </g>
    </g>
</svg>